<svg width="860" height="100" viewBox="0 0 860 100" fill="none" xmlns="http://www.w3.org/2000/svg">
<g clip-path="url(#clip0_4_61)">
<rect width="860" height="100" rx="50" fill="#3E3632"/>
<path d="M661.01 23.6405H689.898L705.441 57.631L721.062 23.6405H749.793V76H734.093L734.486 36.8285H731.817L712.113 76H698.847L679.143 36.8285H676.317L676.71 76H661.01V23.6405ZM806.755 55.8255H822.769C822.848 58.8085 822.926 59.986 822.926 60.771C822.926 69.249 820.728 73.0955 814.919 74.9795C810.68 76.314 804.95 76.785 793.332 76.785C772.843 76.785 766.249 76.157 762.01 73.7235C758.556 71.761 756.986 68.8565 756.358 63.5185C756.123 61.1635 755.966 56.846 755.966 50.1735C755.966 38.477 756.28 34.1595 757.457 31.255C760.283 24.19 766.014 22.8555 793.41 22.8555C807.383 22.8555 812.25 23.405 815.861 25.289C820.336 27.5655 821.906 31.412 821.906 39.8115V42.402H805.97C805.813 38.948 805.656 38.2415 804.714 37.4565C803.537 36.436 798.905 35.965 788.857 35.965C778.888 35.965 775.983 36.279 774.413 37.535C772.529 39.105 771.901 42.1665 771.901 50.095C771.901 63.5185 772.137 63.6755 788.936 63.6755C806.441 63.6755 806.677 63.597 806.755 55.8255Z" fill="white"/>
<path d="M378 13.5H642V21H378V13.5Z" fill="#F20029"/>
<path d="M378 29.875H642V37.375H378V29.875Z" fill="#FD7801"/>
<path d="M378 46.25H642V53.75H378V46.25Z" fill="#F2F540"/>
<path d="M378 62.625H642V70.125H378V62.625Z" fill="#48CC31"/>
<path d="M378 79H642V86.5H378V79Z" fill="#14A3FD"/>
<path d="M139.04 52.6H149.84C149.66 57.34 149.06 59.38 147.2 61.24C144.5 64 141.02 64.72 129.86 64.72C121.16 64.72 117.5 64.12 114.68 62.08C111.92 60.16 111.02 57.1 111.02 49.6C111.02 42.76 111.86 39.76 114.38 37.72C117.08 35.5 120.8 34.84 130.4 34.84C139.82 34.84 143.96 35.56 146.66 37.78C148.94 39.58 149.72 41.8 149.9 47.14H139.1C138.74 43.9 136.64 42.82 130.4 42.82C123.02 42.82 121.64 43.96 121.64 49.9C121.64 53.62 122.24 55.06 124.16 55.84C125.42 56.38 127.7 56.68 130.52 56.68C136.76 56.68 138.56 55.84 139.04 52.6ZM166.413 44.5H155.793C156.093 40.36 157.473 38.14 160.773 36.52C163.233 35.38 168.153 34.84 176.673 34.84C185.973 34.84 188.133 35.26 190.533 37.66C192.333 39.58 192.933 41.74 192.933 46.9V64H182.733V60.1H182.313C181.413 61.96 180.273 62.98 178.353 63.76C176.613 64.48 173.913 64.72 167.013 64.72C157.593 64.72 154.653 62.62 154.653 55.9C154.653 50.8 156.573 47.98 160.713 46.9C163.293 46.18 166.053 46 173.853 46C178.773 46 180.213 46.42 181.893 48.22H182.373V46.72C182.373 42.28 181.533 41.68 175.113 41.68C167.493 41.68 166.713 41.92 166.413 44.5ZM173.493 52C167.013 52 165.273 52.66 165.273 55C165.273 57.28 166.893 57.94 172.593 57.94C180.093 57.94 182.193 57.22 182.193 54.7C182.193 53.56 181.533 52.72 180.333 52.3C179.673 52.06 177.993 52 173.493 52ZM199.365 35.62H209.385V39.88H209.925C211.905 36.28 214.905 34.9 220.845 34.9C229.425 34.9 232.305 37.78 232.305 46.3V48.22H222.285C222.285 44.02 221.085 42.88 216.705 42.88C214.305 42.88 212.325 43.6 211.305 44.92C210.285 46.3 209.985 47.86 209.985 52.24V64H199.365V35.62ZM237.083 75.82V35.62H247.103V39.46H247.643C249.503 35.98 252.503 34.9 260.663 34.9C267.983 34.9 271.763 35.74 274.163 38.02C276.443 40.06 277.103 42.76 277.103 49.96C277.103 62.32 274.343 64.72 260.183 64.72C252.983 64.72 250.283 63.7 248.183 60.34H247.703V75.82H237.083ZM257.483 42.88C248.963 42.88 247.703 43.78 247.703 50.14C247.703 55.66 249.263 56.74 257.123 56.74C261.203 56.74 263.723 56.32 264.863 55.48C266.123 54.58 266.483 53.08 266.483 49.36C266.483 43.9 265.043 42.88 257.483 42.88ZM309.765 54.94H320.325C319.545 62.8 315.645 64.72 300.465 64.72C292.245 64.72 288.345 64 285.765 62.08C283.005 59.98 282.165 57.16 282.165 49.9C282.165 42.28 283.005 39.46 286.005 37.36C288.765 35.44 292.305 34.84 301.545 34.84C311.145 34.84 314.505 35.44 317.085 37.54C319.605 39.64 320.565 42.82 320.565 49.24C320.565 49.6 320.565 50.92 320.505 52.12H292.785C292.785 55 293.085 55.96 294.105 56.74C295.245 57.58 297.465 57.94 301.305 57.94C308.085 57.94 309.345 57.46 309.765 54.94ZM292.785 46.3H309.885C309.825 44.08 309.705 43.54 309.045 42.88C308.085 41.86 305.925 41.44 301.725 41.44C294.585 41.44 292.905 42.34 292.785 46.3ZM330.113 29.08H340.733V35.62H357.533V43.24H340.733V51.52C340.733 54.64 340.793 55.06 341.273 55.78C341.813 56.74 342.893 57.16 344.933 57.16C347.093 57.16 348.293 56.74 348.773 55.72C349.133 55.06 349.193 54.82 349.193 51.88H358.913C358.793 57.28 358.373 59.02 356.753 61.12C354.593 63.82 351.353 64.72 344.033 64.72C337.253 64.72 334.493 64.12 332.393 62.08C330.893 60.58 330.293 59.02 330.173 55.78C330.113 55.3 330.113 53.86 330.113 51.52V43.24H324.533V35.62H330.113V29.08Z" fill="white"/>
<path fill-rule="evenodd" clip-rule="evenodd" d="M59 63.8595C56.6466 65.2208 53.9143 66 51 66C42.1634 66 35 58.8366 35 50C35 41.1634 42.1634 34 51 34C53.9143 34 56.6466 34.7792 59 36.1405V19.0081C56.443 18.35 53.7624 18 51 18C33.3269 18 19 32.3269 19 50C19 67.6731 33.3269 82 51 82C53.7624 82 56.443 81.65 59 80.9919V63.8595Z" fill="white"/>
<path fill-rule="evenodd" clip-rule="evenodd" d="M77.4 82H65V55L77.4 67.4V82ZM79.6 82H92V55L79.6 67.4V82Z" fill="white"/>
</g>
<defs>
<clipPath id="clip0_4_61">
<rect width="860" height="100" rx="50" fill="white"/>
</clipPath>
</defs>
</svg>
